<svg width="1859" height="1200" viewBox="0 0 1859 1200" fill="none" xmlns="http://www.w3.org/2000/svg">
<path d="M135.476 865.99L254.625 1121.48H227.182L187.06 1037.42H76.9432L36.9953 1121.48H8.51064L129.223 865.99H135.476ZM132.349 920.18L88.4065 1012.76H175.771L132.349 920.18Z" fill="url(#paint0_linear_97_13)"/>
<path d="M479.028 859.564V1121.48H455.059V1089C444.869 1101.39 433.406 1110.71 420.669 1116.97C408.048 1123.22 394.211 1126.35 379.158 1126.35C352.41 1126.35 329.541 1116.68 310.552 1097.34C291.678 1077.89 282.241 1054.27 282.241 1026.48C282.241 999.266 291.794 975.992 310.899 956.655C330.005 937.318 352.989 927.649 379.853 927.649C395.369 927.649 409.379 930.949 421.885 937.549C434.506 944.149 445.564 954.049 455.059 967.25V859.564H479.028ZM381.763 951.097C368.216 951.097 355.71 954.455 344.247 961.171C332.784 967.771 323.636 977.092 316.804 989.134C310.089 1001.18 306.731 1013.91 306.731 1027.35C306.731 1040.66 310.146 1053.4 316.978 1065.56C323.81 1077.71 332.957 1087.21 344.421 1094.04C356 1100.76 368.389 1104.11 381.59 1104.11C394.905 1104.11 407.527 1100.76 419.453 1094.04C431.38 1087.32 440.527 1078.24 446.896 1066.77C453.38 1055.31 456.622 1042.4 456.622 1028.04C456.622 1006.16 449.385 987.86 434.911 973.155C420.553 958.449 402.837 951.097 381.763 951.097ZM516.37 932.512H542.25L605.472 1070.07L668.172 932.512H694.225L607.73 1121.48H603.387L516.37 932.512ZM919.844 932.512V1121.48H895.876V1089C885.686 1101.39 874.223 1110.71 861.486 1116.97C848.864 1123.22 835.027 1126.35 819.975 1126.35C793.227 1126.35 770.358 1116.68 751.368 1097.34C732.494 1077.89 723.057 1054.27 723.057 1026.48C723.057 999.266 732.61 975.992 751.716 956.655C770.821 937.318 793.806 927.649 820.669 927.649C836.185 927.649 850.196 930.949 862.701 937.549C875.323 944.149 886.381 954.049 895.876 967.25V932.512H919.844ZM822.58 951.097C809.032 951.097 796.527 954.455 785.064 961.171C773.6 967.771 764.453 977.092 757.621 989.134C750.905 1001.18 747.547 1013.91 747.547 1027.35C747.547 1040.66 750.963 1053.4 757.795 1065.56C764.626 1077.71 773.774 1087.21 785.237 1094.04C796.816 1100.76 809.206 1104.11 822.406 1104.11C835.722 1104.11 848.343 1100.76 860.27 1094.04C872.196 1087.32 881.344 1078.24 887.712 1066.77C894.197 1055.31 897.439 1042.4 897.439 1028.04C897.439 1006.16 890.202 987.86 875.728 973.155C861.37 958.449 843.654 951.097 822.58 951.097ZM974.729 932.512H999.045V966.381C1008.77 953.413 1019.54 943.744 1031.35 937.375C1043.16 930.891 1056.01 927.649 1069.91 927.649C1084.04 927.649 1096.54 931.239 1107.43 938.418C1118.43 945.597 1126.53 955.265 1131.74 967.423C1136.95 979.581 1139.56 998.513 1139.56 1024.22V1121.48H1115.42V1031.34C1115.42 1009.57 1114.49 995.039 1112.64 987.745C1109.74 975.239 1104.3 965.86 1096.31 959.607C1088.32 953.239 1077.9 950.055 1065.05 950.055C1050.34 950.055 1037.14 954.918 1025.45 964.644C1013.87 974.371 1006.22 986.413 1002.52 1000.77C1000.2 1010.15 999.045 1027.29 999.045 1052.18V1121.48H974.729V932.512ZM1375.25 971.765L1355.97 983.75C1339.3 961.634 1316.54 950.576 1287.71 950.576C1264.67 950.576 1245.51 957.986 1230.22 972.808C1215.05 987.629 1207.47 1005.63 1207.47 1026.82C1207.47 1040.6 1210.94 1053.57 1217.89 1065.73C1224.95 1077.89 1234.56 1087.32 1246.72 1094.04C1259 1100.76 1272.72 1104.11 1287.89 1104.11C1315.68 1104.11 1338.37 1093.06 1355.97 1070.94L1375.25 1083.62C1366.22 1097.17 1354.06 1107.7 1338.78 1115.23C1323.61 1122.64 1306.3 1126.35 1286.84 1126.35C1256.97 1126.35 1232.19 1116.85 1212.51 1097.86C1192.82 1078.87 1182.98 1055.77 1182.98 1028.56C1182.98 1010.27 1187.55 993.303 1196.7 977.671C1205.96 961.923 1218.64 949.649 1234.74 940.849C1250.83 932.049 1268.84 927.649 1288.75 927.649C1301.26 927.649 1313.3 929.56 1324.88 933.381C1336.58 937.202 1346.48 942.181 1354.58 948.318C1362.69 954.455 1369.58 962.271 1375.25 971.765ZM1581.24 1058.78L1601.74 1069.55C1595.02 1082.75 1587.26 1093.4 1578.46 1101.51C1569.66 1109.61 1559.76 1115.81 1548.76 1120.09C1537.76 1124.26 1525.32 1126.35 1511.42 1126.35C1480.62 1126.35 1456.54 1116.27 1439.17 1096.13C1421.8 1075.86 1413.11 1052.99 1413.11 1027.52C1413.11 1003.55 1420.47 982.187 1435.17 963.428C1453.81 939.575 1478.77 927.649 1510.03 927.649C1542.22 927.649 1567.93 939.865 1587.15 964.297C1600.81 981.55 1607.76 1003.09 1607.99 1028.91H1438.13C1438.59 1050.91 1445.59 1068.97 1459.14 1083.1C1472.69 1097.11 1489.42 1104.11 1509.34 1104.11C1518.95 1104.11 1528.27 1102.44 1537.3 1099.08C1546.45 1095.72 1554.21 1091.26 1560.57 1085.7C1566.94 1080.15 1573.83 1071.17 1581.24 1058.78ZM1581.24 1007.89C1578 994.924 1573.25 984.56 1567 976.802C1560.86 969.044 1552.7 962.792 1542.51 958.044C1532.32 953.297 1521.61 950.923 1510.38 950.923C1491.85 950.923 1475.93 956.886 1462.61 968.813C1452.89 977.497 1445.54 990.524 1440.56 1007.89H1581.24Z" fill="white"/>
<path d="M1653.84 865.99H1679.38V1121.48H1653.84V865.99ZM1712.72 890.827V865.99H1852.89V890.827H1795.92V1121.48H1769.87V890.827H1712.72Z" fill="url(#paint1_linear_97_13)"/>
<path d="M1374.34 459.534C1385.51 478.442 1371.88 502.328 1349.92 502.328L1212.13 502.328C1202.1 502.328 1192.81 497.028 1187.7 488.392L1187.7 488.381L1187.69 488.37L1093.24 330.241C1082.09 311.337 1095.72 287.47 1117.68 287.47L1255.47 287.47C1265.5 287.47 1274.79 292.771 1279.89 301.407L1279.9 301.418L1279.9 301.429L1374.34 459.534Z" stroke="url(#paint2_linear_97_13)" stroke-width="11.1463"/>
<path d="M1541.5 722.98C1551.18 739.362 1539.37 760.054 1520.34 760.054L1397.94 760.054C1389.25 760.054 1381.2 755.463 1376.78 747.981L1376.77 747.969L1376.77 747.958L1292.87 607.49C1283.21 591.11 1295.02 570.434 1314.04 570.434L1436.44 570.434C1445.13 570.434 1453.18 575.025 1457.6 582.507L1457.61 582.518L1457.61 582.53L1541.5 722.979L1541.5 722.98Z" stroke="url(#paint3_linear_97_13)" stroke-width="11.1463"/>
<path d="M709.258 558.709L1019.58 33.4727L1024.47 26.2676C1025.49 24.7699 1026.92 23.4448 1028.61 22.3406C1035.52 17.8132 1044.74 18.8967 1051.44 23.7347L1052.81 24.7285C1052.81 24.7285 1036.18 0.22801 1008.3 0.000257454L652.81 0.000241915C629.29 0.000240887 607.515 12.423 595.555 32.6721L324.731 491.053C298.54 535.381 330.494 591.38 381.986 591.38L651.996 591.38C675.523 591.38 697.291 578.958 709.258 558.709Z" fill="url(#paint4_linear_97_13)"/>
<path d="M1213.8 580.904L1255.31 650.402L1289.8 650.402C1292.75 650.402 1295.61 650.168 1298.42 649.816L1273.81 608.614C1261.45 587.695 1276.53 561.276 1300.83 561.276L1352.25 561.276C1350.85 557.494 1349.23 553.739 1347.06 550.075L1333.96 527.9L1203.81 527.9C1190.35 527.9 1177.89 520.784 1171.03 509.197L1065.07 331.785C1050.07 306.401 1068.36 274.344 1097.85 274.344L1184.15 274.344L1066.61 73.0462L1065.24 72.0524C1058.54 67.2144 1049.32 66.1239 1042.41 70.6582C1040.72 71.7624 1039.29 73.0875 1038.27 74.5852L1033.38 81.7904L839.647 409.704L962.536 617.737C970.597 631.382 983.151 641.348 997.651 646.482L982.771 621.568C967.036 594.928 986.236 561.283 1017.18 561.283L1179.41 561.283C1193.53 561.276 1206.61 568.736 1213.8 580.904Z" fill="white"/>
<path d="M1316.5 765.462C1329.4 787.334 1313.63 814.948 1288.23 814.948L1132.36 814.948C1120.75 814.948 1110 808.818 1104.11 798.826L1104.1 798.815L1104.09 798.802L997.251 619.924C984.345 598.051 1000.11 570.434 1025.51 570.434L1181.39 570.434C1192.99 570.434 1203.73 576.563 1209.64 586.558L1209.65 586.568L1209.65 586.58L1316.5 765.462Z" stroke="url(#paint5_linear_97_13)" stroke-width="11.1463"/>
<defs>
<linearGradient id="paint0_linear_97_13" x1="-694.244" y1="790.863" x2="-263.475" y2="2032.65" gradientUnits="userSpaceOnUse">
<stop offset="0.1366" stop-color="#0193CC"/>
<stop offset="0.8761" stop-color="#01D0CC"/>
</linearGradient>
<linearGradient id="paint1_linear_97_13" x1="-1044.31" y1="1552.61" x2="-936.698" y2="553.746" gradientUnits="userSpaceOnUse">
<stop offset="0.1366" stop-color="#0193CC"/>
<stop offset="0.8761" stop-color="#01D0CC"/>
</linearGradient>
<linearGradient id="paint2_linear_97_13" x1="1233.8" y1="281.897" x2="1233.8" y2="507.902" gradientUnits="userSpaceOnUse">
<stop stop-color="#0193CC"/>
<stop offset="1" stop-color="#01D0CC"/>
</linearGradient>
<linearGradient id="paint3_linear_97_13" x1="1417.19" y1="564.861" x2="1417.19" y2="765.627" gradientUnits="userSpaceOnUse">
<stop stop-color="#0193CC"/>
<stop offset="1" stop-color="#01D0CC"/>
</linearGradient>
<linearGradient id="paint4_linear_97_13" x1="1006.5" y1="-220.851" x2="471.918" y2="765.106" gradientUnits="userSpaceOnUse">
<stop offset="0.1366" stop-color="#0193CC"/>
<stop offset="0.8761" stop-color="#01D0CC"/>
</linearGradient>
<linearGradient id="paint5_linear_97_13" x1="1156.87" y1="564.86" x2="1156.87" y2="820.522" gradientUnits="userSpaceOnUse">
<stop stop-color="#0193CC"/>
<stop offset="1" stop-color="#01D0CC"/>
</linearGradient>
</defs>
</svg>
